# xmcd CD database file
#
# Track frame offsets:
#	150
#	12225
#	27412
#	40725
#	58350
#	72077
#	83925
#	95887
#	106500
#	120787
#	134775
#	143962
#	156037
#	167887
#	176212
#
# Disc length: 2529 seconds
#
# Revision: 4
# Processed by: cddbd v1.4PL0 Copyright (c) Steve Scherf et al.
# Submitted via: CDex 1.50
#
DISCID=d009df0f
DTITLE=Wylie and the Wild West - Ridin' the High Line
DYEAR=2000
DGENRE=Country
TTITLE0=Yodeling Cowhand
TTITLE1=Ridin' the Hi-Line
TTITLE2=Doggone Cowboy
TTITLE3=Montana Moon
TTITLE4=Yodeling My Blues Away
TTITLE5=Down the Trail
TTITLE6=Jitterbug Boogie
TTITLE7=Ridin' Rockin' Rollin'
TTITLE8=He's a Cowboy
TTITLE9=The Gather
TTITLE10=The Dusty Cafe
TTITLE11=Sage and Sand
TTITLE12=Buffalo Gals
TTITLE13=Odessa Yodel
TTITLE14=Ol' Coyote
EXTD=YEAR: 2000
EXTT0=
EXTT1=
EXTT2=
EXTT3=
EXTT4=
EXTT5=
EXTT6=
EXTT7=
EXTT8=
EXTT9=
EXTT10=
EXTT11=
EXTT12=
EXTT13=
EXTT14=
PLAYORDER=
